<?xml version="1.0" standalone="no"?>
<!DOCTYPE svg PUBLIC "-//W3C//DTD SVG 20010904//EN"
 "http://www.w3.org/TR/2001/REC-SVG-20010904/DTD/svg10.dtd">
<svg version="1.0" xmlns="http://www.w3.org/2000/svg"
 width="100.000000pt" height="100.000000pt" viewBox="0 0 600.000000 600.000000"
 preserveAspectRatio="xMidYMid meet">
<metadata>
Created by potrace 1.16, written by Peter Selinger 2001-2019
</metadata>
<g transform="translate(0.000000,600.000000) scale(0.100000,-0.100000)"
fill="#000000" stroke="none">
<path d="M2844 4155 c-14 -45 -45 -235 -46 -287 -2 -110 54 -186 150 -207 128
-27 242 59 242 184 0 52 -30 308 -37 315 -2 2 -20 5 -39 6 -41 1 -40 12 -14
-182 12 -82 18 -163 15 -181 -8 -47 -65 -93 -116 -93 -54 0 -93 22 -113 64
-21 44 -20 62 4 209 11 67 23 136 25 154 6 31 5 32 -31 30 -20 -1 -38 -6 -40
-12z"/>
<path d="M2998 4033 c-16 -4 -31 -65 -45 -186 -9 -74 32 -108 86 -71 22 16 23
22 18 78 -9 86 -28 186 -36 185 -3 -1 -13 -3 -23 -6z"/>
<path d="M2730 3321 c0 -294 0 -301 20 -301 20 0 20 -7 20 -600 0 -593 0 -600
-20 -600 -20 0 -20 -7 -20 -330 0 -323 0 -330 20 -330 20 0 20 -7 20 -298 l0
-298 -57 -18 c-31 -10 -236 -90 -456 -177 -219 -87 -412 -159 -428 -159 l-29
0 0 -100 0 -100 1180 0 1180 0 0 100 0 100 -29 0 c-16 0 -209 72 -428 159
-220 87 -425 167 -456 177 l-57 18 0 118 0 118 70 0 c56 0 70 -3 70 -15 0 -17
11 -18 60 -6 83 21 90 22 90 6 0 -17 11 -18 60 -6 87 22 90 23 90 2 0 -18 8
-16 100 21 l100 40 0 48 0 48 -100 40 c-92 37 -100 39 -100 21 0 -21 -3 -20
-90 2 -49 12 -60 11 -60 -6 0 -16 -7 -15 -90 6 -49 12 -60 11 -60 -6 0 -12
-14 -15 -70 -15 l-70 0 0 90 c0 83 1 90 20 90 20 0 20 7 20 330 0 323 0 330
-20 330 -20 0 -20 7 -20 600 0 593 0 600 20 600 20 0 20 7 20 301 l0 301 -77
-5 c-43 -3 -99 -10 -125 -15 -27 -5 -69 -5 -100 0 -29 5 -86 12 -125 15 l-73
5 0 -301z m450 -1 l0 -240 -200 0 -200 0 0 240 0 240 200 0 200 0 0 -240z
m-50 -900 l0 -600 -150 0 -150 0 0 600 0 600 150 0 150 0 0 -600z m50 -930 l0
-270 -200 0 -200 0 0 270 0 270 200 0 200 0 0 -270z m-50 -620 l0 -290 -89 0
c-48 0 -116 -3 -150 -6 l-61 -7 0 297 0 296 150 0 150 0 0 -290z m340 59 c49
-12 60 -11 60 7 0 10 6 14 18 11 85 -24 125 -29 132 -17 6 9 18 7 54 -8 25
-12 46 -26 46 -32 0 -6 -21 -20 -47 -31 -35 -15 -48 -17 -54 -8 -6 10 -23 9
-78 -3 -60 -13 -71 -13 -71 -2 0 17 -19 17 -92 0 -50 -12 -58 -12 -58 0 0 11
-20 14 -95 14 l-95 0 0 30 0 30 95 0 c78 0 95 3 95 15 0 16 7 15 90 -6z"/>
<path d="M2925 1719 c-40 -13 -58 -28 -84 -69 -18 -31 -21 -50 -21 -159 0
-139 14 -181 73 -217 45 -26 132 -25 177 3 61 38 70 64 70 213 0 148 -12 185
-71 215 -38 20 -106 27 -144 14z m120 -65 c33 -22 45 -64 45 -165 0 -97 -8
-127 -41 -158 -33 -31 -108 -29 -146 3 l-28 24 0 132 0 132 30 24 c36 28 103
32 140 8z"/>
<path d="M2904 1615 c-13 -19 -15 -46 -12 -135 3 -97 6 -114 22 -126 32 -23
36 -17 36 46 l0 60 30 0 30 0 0 -60 c0 -64 8 -72 40 -40 18 18 20 33 20 133 0
138 -6 147 -93 147 -49 0 -59 -3 -73 -25z"/>
</g>
</svg>
