<?xml version="1.0" standalone="no"?>
<!DOCTYPE svg PUBLIC "-//W3C//DTD SVG 20010904//EN"
 "http://www.w3.org/TR/2001/REC-SVG-20010904/DTD/svg10.dtd">
<svg version="1.0" xmlns="http://www.w3.org/2000/svg"
 width="100.000000pt" height="100.000000pt" viewBox="0 0 720.000000 720.000000"
 preserveAspectRatio="xMidYMid meet">
<metadata>
Created by potrace 1.16, written by Peter Selinger 2001-2019
</metadata>
<g transform="translate(0.000000,720.000000) scale(0.100000,-0.100000)"
fill="#000000" stroke="none">
<path d="M3026 7099 c-35 -28 -28 -63 19 -102 28 -23 35 -36 40 -80 6 -55 35
-703 35 -787 l0 -49 -47 -6 c-145 -20 -384 -83 -539 -141 -874 -326 -1539
-1004 -1844 -1877 -118 -338 -165 -628 -163 -1007 1 -247 17 -416 59 -607 132
-610 407 -1118 838 -1546 434 -432 931 -700 1539 -831 198 -43 359 -58 617
-58 258 0 419 15 617 58 608 131 1105 399 1539 831 431 428 706 936 838 1546
42 191 58 360 59 607 2 379 -45 669 -163 1007 -276 790 -844 1420 -1599 1772
-272 127 -545 212 -783 246 l-48 6 0 49 c0 84 29 732 35 787 5 44 12 57 40 80
47 39 54 74 19 102 -35 27 -39 27 -90 -11 -84 -63 -84 -66 -105 -531 -10 -227
-19 -448 -21 -493 l-4 -81 85 -12 c918 -131 1711 -685 2170 -1516 67 -122 130
-268 190 -438 193 -551 211 -1190 50 -1760 -208 -738 -702 -1367 -1379 -1754
-344 -197 -698 -312 -1120 -365 -136 -16 -524 -16 -660 0 -694 87 -1286 375
-1762 858 -460 467 -741 1045 -824 1694 -88 698 75 1401 463 1989 197 297 473
582 765 790 367 260 815 437 1269 502 l85 12 -4 81 c-2 45 -11 266 -21 493
-21 465 -21 468 -105 531 -51 38 -55 38 -90 11z"/>
</g>
</svg>
