<?xml version="1.0" standalone="no"?>
<!DOCTYPE svg PUBLIC "-//W3C//DTD SVG 20010904//EN"
 "http://www.w3.org/TR/2001/REC-SVG-20010904/DTD/svg10.dtd">
<svg version="1.0" xmlns="http://www.w3.org/2000/svg"
 width="100.000000pt" height="100.000000pt" viewBox="0 0 776.000000 776.000000"
 preserveAspectRatio="xMidYMid meet">
<metadata>
Created by potrace 1.16, written by Peter Selinger 2001-2019
</metadata>
<g transform="translate(0.000000,776.000000) scale(0.100000,-0.100000)"
fill="#000000" stroke="none">
<path d="M3112 7704 c-34 -23 -28 -60 18 -110 l40 -44 0 -747 0 -747 -259
-690 c-143 -380 -564 -1501 -936 -2491 -372 -990 -686 -1838 -697 -1884 -13
-56 -20 -119 -20 -187 0 -370 243 -680 607 -775 l90 -24 1925 0 1925 0 90 24
c364 95 607 405 607 775 0 68 -7 131 -20 187 -11 46 -325 894 -697 1884 -372
990 -793 2111 -936 2491 l-259 690 0 747 0 747 40 44 c48 52 52 87 14 113 -25
16 -28 16 -61 -2 -50 -28 -90 -81 -103 -137 -6 -32 -10 -310 -10 -785 l0 -736
932 -2481 c512 -1364 939 -2510 949 -2545 40 -138 41 -308 3 -425 -56 -175
-201 -336 -368 -410 -149 -66 20 -61 -2106 -61 -2126 0 -1957 -5 -2106 61
-168 74 -312 234 -368 410 -38 117 -37 287 3 425 10 35 437 1181 950 2546
l932 2482 -3 763 c-3 752 -3 764 -24 803 -20 39 -94 105 -118 105 -6 0 -22 -7
-34 -16z"/>
</g>
</svg>
