<?xml version="1.0" standalone="no"?>
<!DOCTYPE svg PUBLIC "-//W3C//DTD SVG 20010904//EN"
 "http://www.w3.org/TR/2001/REC-SVG-20010904/DTD/svg10.dtd">
<svg version="1.0" xmlns="http://www.w3.org/2000/svg"
 width="600.000000pt" height="600.000000pt" viewBox="0 0 600.000000 600.000000"
 preserveAspectRatio="xMidYMid meet">
<metadata>
Created by potrace 1.16, written by Peter Selinger 2001-2019
</metadata>
<g transform="translate(0.000000,600.000000) scale(0.100000,-0.100000)"
fill="#000000" stroke="none">
<path d="M428 5349 c-11 -6 -18 -22 -18 -39 0 -31 119 -182 1622 -2057 l538
-672 0 -1200 c0 -1310 -4 -1231 55 -1231 59 0 55 -81 55 1255 l0 1224 -958
1198 c-527 659 -1017 1273 -1091 1366 -113 142 -136 167 -159 167 -15 0 -35
-5 -44 -11z"/>
<path d="M5369 5193 c-74 -93 -564 -707 -1091 -1366 l-958 -1198 0 -1299 c0
-1419 -4 -1330 55 -1330 59 0 55 -86 55 1306 l0 1275 538 672 c1505 1878 1622
2026 1622 2057 0 32 -22 50 -64 50 -20 0 -49 -31 -157 -167z"/>
</g>
</svg>
