<?xml version="1.0" standalone="no"?>
<!DOCTYPE svg PUBLIC "-//W3C//DTD SVG 20010904//EN"
 "http://www.w3.org/TR/2001/REC-SVG-20010904/DTD/svg10.dtd">
<svg version="1.0" xmlns="http://www.w3.org/2000/svg"
 width="540.000000pt" height="540.000000pt" viewBox="0 0 540.000000 540.000000"
 preserveAspectRatio="xMidYMid meet">
<metadata>
Created by potrace 1.16, written by Peter Selinger 2001-2019
</metadata>
<g transform="translate(0.000000,540.000000) scale(0.100000,-0.100000)"
fill="#000000" stroke="none">
<path d="M680 1086 l0 -94 -142 -6 c-79 -4 -169 -9 -201 -12 l-57 -6 -50 -91
c-144 -264 -143 -500 2 -765 l51 -92 2427 0 2426 0 41 57 c98 140 137 260 137
418 0 158 -39 278 -137 417 -46 65 -37 63 -264 74 l-133 6 0 94 0 94 -2050 0
-2050 0 0 -94z m2922 -146 c463 -11 1125 -35 1345 -49 158 -11 151 -7 208
-121 49 -98 67 -172 67 -277 0 -109 -29 -208 -90 -313 l-38 -65 -2380 -3
-2381 -2 -45 92 c-56 115 -71 175 -71 293 0 118 15 178 70 292 44 92 44 92 86
97 104 13 1191 54 1552 59 533 7 1297 6 1677 -3z"/>
<path d="M4237 776 c-197 -71 -262 -315 -125 -471 62 -70 126 -99 218 -100 91
0 145 23 209 86 64 64 86 118 85 209 -1 91 -17 133 -79 199 -77 82 -204 113
-308 77z m207 -113 c106 -75 119 -215 28 -305 -91 -92 -230 -78 -306 29 -72
103 -23 254 97 300 51 20 134 9 181 -24z"/>
<path d="M1080 693 c-43 -15 -54 -80 -18 -113 28 -26 58 -26 92 1 62 49 2 139
-74 112z"/>
</g>
</svg>
