<?xml version="1.0" standalone="no"?>
<!DOCTYPE svg PUBLIC "-//W3C//DTD SVG 20010904//EN"
 "http://www.w3.org/TR/2001/REC-SVG-20010904/DTD/svg10.dtd">
<svg version="1.0" xmlns="http://www.w3.org/2000/svg"
 width="732.000000pt" height="732.000000pt" viewBox="0 0 732.000000 732.000000"
 preserveAspectRatio="xMidYMid meet">
<metadata>
Created by potrace 1.16, written by Peter Selinger 2001-2019
</metadata>
<g transform="translate(0.000000,732.000000) scale(0.100000,-0.100000)"
fill="#000000" stroke="none">
<path d="M1275 2725 l-540 -414 -357 -1 -358 0 0 -1145 0 -1145 3640 0 3640 0
0 1145 0 1145 -380 0 -380 0 -478 414 -477 415 -1885 0 -1885 1 -540 -415z
m4695 -42 l421 -368 -1376 -3 c-756 -1 -1995 -1 -2752 0 l-1377 3 478 368 478
367 1854 0 1853 0 421 -367z m1240 -1518 l0 -1055 -3157 0 c-1737 0 -3337 -3
-3555 -7 l-398 -6 0 1061 0 1062 3555 0 3555 0 0 -1055z"/>
<path d="M563 1903 l-73 -4 0 -424 0 -425 225 0 225 0 0 430 0 430 -152 -2
c-84 -1 -186 -4 -225 -5z m277 -428 l0 -335 -130 0 -130 0 0 335 0 335 130 0
130 0 0 -335z"/>
<path d="M4620 1834 c-146 -16 -256 -61 -363 -149 -190 -159 -273 -401 -222
-644 49 -235 260 -447 496 -496 132 -28 291 -14 404 36 181 80 338 269 376
454 17 85 15 237 -5 314 -49 188 -186 352 -361 431 -86 39 -234 63 -325 54z
m190 -109 c183 -48 330 -183 392 -358 32 -91 32 -275 0 -366 -115 -322 -474
-470 -780 -321 -88 43 -208 163 -251 252 -85 173 -75 393 25 546 80 122 208
217 336 248 72 17 211 17 278 -1z"/>
<path d="M6190 1830 c-259 -41 -478 -245 -536 -500 -24 -106 -16 -260 19 -358
72 -204 262 -378 467 -426 83 -20 227 -20 310 0 200 47 385 211 458 406 28 75
45 209 37 288 -10 99 -24 147 -68 240 -55 117 -166 228 -287 287 -47 22 -106
46 -131 52 -67 16 -205 21 -269 11z m240 -105 c183 -48 330 -183 392 -358 32
-91 32 -275 0 -366 -115 -322 -474 -470 -780 -321 -88 43 -208 163 -251 252
-85 173 -75 393 25 546 80 122 208 217 336 248 72 17 211 17 278 -1z"/>
</g>
</svg>
