<?xml version="1.0" standalone="no"?>
<!DOCTYPE svg PUBLIC "-//W3C//DTD SVG 20010904//EN"
 "http://www.w3.org/TR/2001/REC-SVG-20010904/DTD/svg10.dtd">
<svg version="1.0" xmlns="http://www.w3.org/2000/svg"
 width="100.000000pt" height="100.000000pt" viewBox="0 0 320.000000 320.000000"
 preserveAspectRatio="xMidYMid meet">
<metadata>
Created by potrace 1.16, written by Peter Selinger 2001-2019
</metadata>
<g transform="translate(0.000000,320.000000) scale(0.100000,-0.100000)"
fill="#000000" stroke="none">
<path d="M1534 537 c-25 -7 -52 -25 -69 -44 l-27 -33 -472 0 c-522 0 -544 -2
-612 -62 -114 -101 -73 -231 91 -289 51 -18 88 -19 529 -19 l475 0 21 -28 c47
-60 177 -60 230 -1 l25 29 501 2 501 3 68 35 c80 41 105 71 112 132 6 54 -11
92 -61 136 -69 60 -88 62 -627 62 l-488 0 -28 34 c-19 23 -42 37 -75 45 -26 6
-48 11 -50 10 -2 -1 -22 -6 -44 -12z m131 -63 c8 -10 15 -27 15 -36 0 -17 31
-18 503 -18 422 0 512 -2 555 -15 100 -30 149 -101 117 -170 -13 -27 -32 -42
-83 -67 l-67 -33 -512 -3 c-426 -3 -513 -5 -513 -17 0 -21 -49 -55 -80 -55
-59 0 -89 12 -102 41 l-12 28 -501 3 -500 3 -58 29 c-126 61 -127 162 -2 229
39 22 50 22 553 25 476 2 512 4 512 20 1 23 21 48 45 55 41 12 115 0 130 -19z"/>
</g>
</svg>
