<?xml version="1.0" standalone="no"?>
<!DOCTYPE svg PUBLIC "-//W3C//DTD SVG 20010904//EN"
 "http://www.w3.org/TR/2001/REC-SVG-20010904/DTD/svg10.dtd">
<svg version="1.0" xmlns="http://www.w3.org/2000/svg"
 width="752.000000pt" height="752.000000pt" viewBox="0 0 752.000000 752.000000"
 preserveAspectRatio="xMidYMid meet">
<metadata>
Created by potrace 1.16, written by Peter Selinger 2001-2019
</metadata>
<g transform="translate(0.000000,752.000000) scale(0.100000,-0.100000)"
fill="#000000" stroke="none">
<path d="M2665 7406 c-16 -7 -39 -23 -50 -36 -20 -22 -20 -38 -23 -3501 l-2
-3478 -309 -3 c-295 -3 -311 -4 -337 -24 -63 -47 -69 -63 -72 -215 l-4 -139
2026 0 2026 0 0 136 c0 121 -2 140 -21 171 -46 74 88 68 -1581 71 l-1498 2 0
3470 c0 2600 -3 3475 -12 3494 -22 50 -92 75 -143 52z m19 -102 c3 -9 6 -1568
6 -3465 0 -3442 0 -3449 -20 -3449 -20 0 -20 7 -20 3458 0 1902 3 3462 7 3465
11 11 20 8 27 -9z m3131 -7010 c24 -15 25 -21 25 -110 l0 -94 -1939 0 -1939 0
-7 64 c-4 35 -4 78 0 95 14 66 -142 61 1943 61 1725 0 1895 -1 1917 -16z"/>
</g>
</svg>
