<?xml version="1.0" standalone="no"?>
<!DOCTYPE svg PUBLIC "-//W3C//DTD SVG 20010904//EN"
 "http://www.w3.org/TR/2001/REC-SVG-20010904/DTD/svg10.dtd">
<svg version="1.0" xmlns="http://www.w3.org/2000/svg"
 width="776.000000pt" height="776.000000pt" viewBox="0 0 776.000000 776.000000"
 preserveAspectRatio="xMidYMid meet">
<metadata>
Created by potrace 1.16, written by Peter Selinger 2001-2019
</metadata>
<g transform="translate(0.000000,776.000000) scale(0.100000,-0.100000)"
fill="#000000" stroke="none">
<path d="M3326 7698 c-23 -33 -20 -44 27 -95 l42 -46 3 -1138 2 -1138 -37 -6
c-228 -37 -541 -150 -788 -282 -253 -136 -478 -305 -661 -496 -235 -246 -367
-433 -504 -712 -147 -297 -233 -586 -271 -910 -18 -150 -15 -505 5 -654 68
-493 231 -901 521 -1297 273 -373 676 -695 1103 -883 l93 -41 1019 0 1019 0
93 41 c427 188 830 510 1103 883 290 396 453 804 521 1297 20 149 23 504 5
654 -38 324 -124 613 -271 910 -137 279 -269 466 -504 712 -280 293 -656 531
-1073 678 -94 33 -297 87 -376 100 l-37 6 2 1138 3 1138 43 46 c46 51 49 62
26 95 -27 39 -70 30 -125 -27 -41 -42 -48 -57 -58 -113 -8 -45 -11 -409 -11
-1220 l0 -1156 68 -11 c436 -75 823 -242 1169 -504 127 -96 363 -324 453 -437
488 -612 678 -1350 549 -2130 -83 -502 -326 -975 -701 -1365 -219 -229 -466
-407 -751 -545 l-165 -80 -982 0 -982 0 -165 80 c-285 138 -532 316 -751 545
-487 506 -743 1140 -742 1835 1 602 206 1178 590 1660 90 113 326 341 453 437
346 262 733 429 1170 504 l67 11 0 1156 c0 811 -3 1175 -11 1220 -10 56 -17
71 -58 113 -55 57 -98 66 -125 27z"/>
</g>
</svg>
