<?xml version="1.0" standalone="no"?>
<!DOCTYPE svg PUBLIC "-//W3C//DTD SVG 20010904//EN"
 "http://www.w3.org/TR/2001/REC-SVG-20010904/DTD/svg10.dtd">
<svg version="1.0" xmlns="http://www.w3.org/2000/svg"
 width="520.000000pt" height="520.000000pt" viewBox="0 0 520.000000 520.000000"
 preserveAspectRatio="xMidYMid meet">
<metadata>
Created by potrace 1.16, written by Peter Selinger 2001-2019
</metadata>
<g transform="translate(0.000000,520.000000) scale(0.100000,-0.100000)"
fill="#000000" stroke="none">
<path d="M4708 4788 c-9 -7 -97 -139 -196 -293 -98 -154 -250 -384 -337 -512
-150 -220 -159 -231 -180 -221 -21 9 -36 0 -146 -87 l-123 -97 -162 -231 -163
-231 50 -34 c27 -19 49 -38 49 -41 0 -25 -295 -357 -356 -401 -50 -36 -101
-39 -221 -14 -97 20 -155 47 -193 90 l-30 35 0 173 c0 187 -9 256 -40 320 -20
40 -21 54 -18 570 l3 528 37 32 c50 44 58 77 22 105 -15 11 -31 21 -37 21 -24
0 -99 -69 -119 -110 -23 -45 -23 -45 -26 -627 l-3 -581 22 -4 c34 -5 41 -43
42 -258 2 -193 2 -195 29 -241 64 -109 191 -167 400 -184 82 -7 92 -6 140 18
60 30 209 165 282 255 l49 62 31 -31 c61 -59 95 -52 151 31 38 56 57 71 69 52
3 -5 -35 -83 -84 -173 -106 -195 -165 -333 -179 -416 -11 -68 -2 -191 28 -393
72 -477 47 -729 -102 -1025 -175 -350 -482 -606 -845 -705 -349 -96 -715 -50
-1013 126 -285 170 -515 491 -585 819 -82 384 67 872 367 1199 102 112 278
223 417 263 l64 18 -7 150 c-6 137 6 381 21 420 4 8 15 15 26 15 19 0 19 12
16 583 -3 582 -3 582 -26 627 -20 41 -95 110 -119 110 -6 0 -22 -10 -37 -21
-36 -28 -28 -61 22 -105 l37 -32 0 -538 0 -539 -24 -60 c-23 -56 -25 -76 -29
-291 l-4 -230 -97 -45 c-214 -97 -360 -228 -503 -449 -149 -229 -236 -482
-259 -756 -25 -284 45 -542 217 -804 136 -207 284 -345 505 -468 315 -174 735
-207 1107 -86 118 39 308 136 402 208 116 87 282 261 358 376 139 209 218 426
243 670 13 135 7 253 -27 515 -13 105 -29 228 -35 275 -18 141 -5 198 92 393
58 117 138 266 152 284 7 10 15 8 34 -7 l25 -20 62 88 c264 374 259 365 314
530 41 124 48 154 36 159 -8 3 -14 9 -14 14 0 9 357 579 537 856 132 204 141
227 92 254 -48 25 -58 12 -297 -358 -126 -197 -260 -407 -297 -468 -38 -60
-70 -111 -71 -113 -3 -4 -32 12 -58 32 -17 14 -11 25 106 198 194 286 491 751
496 775 5 25 -29 63 -56 63 -10 0 -25 -6 -34 -12z m-514 -1273 c17 -13 17 -18
-19 -127 -35 -105 -47 -126 -167 -298 -71 -102 -133 -186 -137 -188 -4 -1 -28
14 -54 33 l-47 36 37 54 c32 49 40 55 70 55 38 0 98 23 126 48 49 44 71 143
47 207 -8 22 -3 35 51 110 33 47 63 85 67 85 4 0 15 -7 26 -15z m-227 -158
c42 -46 51 -94 27 -143 -27 -53 -64 -77 -118 -77 -52 0 -89 21 -116 66 -80
130 104 266 207 154z"/>
</g>
</svg>
