<?xml version="1.0" standalone="no"?>
<!DOCTYPE svg PUBLIC "-//W3C//DTD SVG 20010904//EN"
 "http://www.w3.org/TR/2001/REC-SVG-20010904/DTD/svg10.dtd">
<svg version="1.0" xmlns="http://www.w3.org/2000/svg"
 width="100.000000pt" height="100.000000pt" viewBox="0 0 776.000000 776.000000"
 preserveAspectRatio="xMidYMid meet">
<metadata>
Created by potrace 1.16, written by Peter Selinger 2001-2019
</metadata>
<g transform="translate(0.000000,776.000000) scale(0.100000,-0.100000)"
fill="#000000" stroke="none">
<path d="M3444 7605 c-32 -32 -25 -58 25 -101 l36 -32 3 -2263 2 -2263 -25
-38 c-26 -40 -151 -190 -369 -443 -172 -201 -425 -517 -513 -640 -176 -249
-311 -495 -369 -671 -26 -80 -29 -102 -29 -219 1 -104 5 -146 23 -209 95 -332
394 -658 646 -705 83 -15 1889 -15 1972 0 252 47 551 373 646 705 18 63 22
105 23 209 0 117 -3 139 -29 219 -58 176 -193 422 -369 671 -88 123 -341 439
-513 640 -218 253 -343 403 -369 443 l-25 38 2 2263 3 2263 36 32 c50 43 57
69 25 101 -14 14 -31 25 -39 25 -29 0 -104 -69 -123 -112 -18 -42 -19 -116
-22 -2314 l-2 -2271 27 -51 c35 -64 109 -157 353 -442 447 -522 663 -814 800
-1085 97 -190 121 -266 127 -400 6 -124 -11 -208 -66 -329 -78 -173 -264 -379
-405 -451 l-79 -40 -987 0 -987 0 -79 40 c-141 72 -327 278 -405 451 -55 121
-72 205 -66 329 6 134 30 210 127 400 137 271 353 563 800 1085 244 285 318
378 353 442 l27 51 -2 2271 c-3 2198 -4 2272 -22 2314 -19 43 -94 112 -123
112 -8 0 -25 -11 -39 -25z"/>
</g>
</svg>
